<?xml version="1.0" encoding="UTF-8"?>
<svg width="384" height="384" viewBox="0 0 384 384" fill="none" xmlns="http://www.w3.org/2000/svg">
  <defs>
    <linearGradient id="bg-noah" x1="48" y1="28" x2="336" y2="356" gradientUnits="userSpaceOnUse">
      <stop stop-color="#37513A"/>
      <stop offset="1" stop-color="#162318"/>
    </linearGradient>
    <linearGradient id="shirt-noah" x1="192" y1="220" x2="192" y2="370" gradientUnits="userSpaceOnUse">
      <stop stop-color="#8ab36f"/>
      <stop offset="1" stop-color="#668e4c"/>
    </linearGradient>
  </defs>
  <rect width="384" height="384" rx="72" fill="url(#bg-noah)"/>
  <circle cx="300" cy="88" r="76" fill="#A3D98B2e"/>
  <circle cx="74" cy="302" r="56" fill="#A3D98B1f"/>
  <path d="M76 310C110 254 152 226 192 226C234 226 278 254 308 310V384H76V310Z" fill="url(#shirt-noah)"/>
  <ellipse cx="192" cy="332" rx="138" ry="86" fill="#7AA95B7a"/>
  
  <rect x="169" y="188" width="46" height="46" rx="20" fill="#bc8a5d"/>
  <ellipse cx="192" cy="150" rx="76" ry="84" fill="#C89363"/>
  <ellipse cx="163" cy="154" rx="7" ry="8" fill="#231D1A"/>
  <ellipse cx="221" cy="154" rx="7" ry="8" fill="#231D1A"/>
  <path d="M191 160V184" stroke="#9e7351" stroke-width="5" stroke-linecap="round"/>
  <path d="M168 199C178 208 205 208 216 199" stroke="#7f4e3d" stroke-width="6" stroke-linecap="round"/>
  <ellipse cx="143" cy="176" rx="13" ry="7" fill="#d98c715c"/>
  <ellipse cx="241" cy="176" rx="13" ry="7" fill="#d98c715c"/>
  <g>
        <path d="M124 132C131 90 158 64 192 64C226 64 253 90 260 132C240 116 218 108 192 108C166 108 144 116 124 132Z" fill="#181514"/>
        <rect x="120" y="128" width="18" height="60" rx="9" fill="#2a2827"/>
        <rect x="246" y="128" width="18" height="60" rx="9" fill="#2a2827"/>
      </g>
  
</svg>
